<!DOCTYPE svg PUBLIC "-//W3C//DTD SVG 20010904//EN" "http://www.w3.org/TR/2001/REC-SVG-20010904/DTD/svg10.dtd">
<svg version="1.0" xmlns="http://www.w3.org/2000/svg" width="536px" height="536px" viewBox="0 0 5360 5360" preserveAspectRatio="xMidYMid meet">
<g id="layer101" fill="#2b2b2c" stroke="none">
 <path d="M2370 5349 c-822 -100 -1542 -560 -1976 -1262 -260 -420 -394 -896 -394 -1402 0 -597 177 -1128 538 -1615 105 -141 377 -416 514 -518 605 -452 1326 -631 2063 -512 446 72 882 266 1245 556 110 88 317 295 404 404 308 388 491 809 568 1305 29 186 31 549 5 730 -109 741 -477 1366 -1062 1800 -354 262 -719 417 -1170 496 -98 17 -170 22 -390 24 -148 2 -304 -1 -345 -6z m640 -99 c496 -72 919 -254 1295 -557 126 -101 338 -319 431 -444 257 -341 421 -722 496 -1155 30 -175 33 -615 5 -792 -137 -856 -655 -1561 -1422 -1938 -255 -125 -502 -201 -800 -246 -138 -20 -560 -18 -705 5 -934 145 -1694 748 -2041 1620 -295 740 -216 1614 209 2301 138 223 369 488 562 643 403 324 877 520 1390 573 107 11 480 5 580 -10z"/>
 <path d="M2383 5115 c-177 -21 -196 -38 -182 -165 14 -124 35 -133 275 -109 113 11 140 22 128 53 -6 16 -15 18 -68 12 -34 -4 -105 -9 -158 -13 -110 -7 -103 -11 -112 75 -7 71 5 78 172 93 133 12 158 21 146 53 -7 19 -40 19 -201 1z"/>
 <path d="M2812 5122 c-9 -6 -13 -53 -15 -178 -2 -157 -1 -169 17 -172 10 -2 23 1 29 7 15 15 29 321 15 338 -12 15 -27 16 -46 5z"/>
 <path d="M3120 5069 c-29 -12 -37 -22 -50 -68 -20 -73 30 -112 203 -152 99 -23 116 -46 19 -27 -58 12 -59 12 -64 -17 -4 -25 45 -44 118 -44 65 -1 87 21 109 111 30 116 13 135 -158 180 -117 30 -138 32 -177 17z m180 -77 l95 -28 -1 -37 c-1 -21 -3 -40 -6 -42 -7 -8 -232 55 -246 69 -9 9 -10 19 -3 39 13 34 36 34 161 -1z"/>
 <path d="M1923 5004 c-6 -18 56 -232 73 -249 8 -7 9 -17 3 -27 -6 -11 -4 -21 7 -32 19 -20 24 -20 52 0 27 19 29 44 3 51 -12 3 -17 11 -14 23 3 10 -12 70 -33 134 -34 104 -41 116 -61 116 -13 0 -26 -7 -30 -16z"/>
 <path d="M1662 4914 l-23 -16 48 -90 48 -90 -27 -21 c-16 -12 -64 -41 -107 -64 l-79 -43 -48 88 c-41 73 -53 87 -74 87 -41 0 -31 -38 48 -182 74 -135 93 -153 121 -119 10 11 9 21 -3 45 l-16 30 95 52 c109 60 148 96 148 137 0 27 -88 202 -102 202 -3 0 -17 -7 -29 -16z"/>
 <path d="M3860 4881 c-14 -27 -15 -26 33 -54 88 -52 68 -57 -25 -7 -174 93 -192 90 -261 -35 -53 -94 -56 -109 -26 -126 26 -14 28 -12 79 84 30 55 47 77 61 77 20 0 88 -32 166 -77 l42 -24 -50 -94 -50 -93 23 -16 c12 -9 26 -16 30 -16 13 0 138 243 138 270 0 37 -24 66 -83 100 -62 35 -63 36 -77 11z"/>
 <path d="M1049 4509 c-111 -102 -145 -151 -132 -186 11 -31 97 -122 125 -134 39 -16 75 5 201 117 107 95 126 126 82 132 -13 1 -52 -27 -115 -84 -121 -109 -132 -115 -166 -83 -14 13 -35 37 -46 52 -26 36 -19 47 106 157 69 61 96 91 94 105 -6 42 -38 26 -149 -76z"/>
 <path d="M2490 4569 c-863 -88 -1553 -747 -1686 -1610 -22 -140 -22 -410 0 -551 74 -475 317 -900 687 -1198 749 -603 1830 -549 2515 127 476 468 668 1149 509 1801 -51 212 -166 464 -293 641 -76 107 -249 292 -350 374 -381 311 -894 465 -1382 416z m480 -84 c698 -115 1265 -620 1463 -1305 50 -171 62 -269 62 -500 0 -243 -16 -350 -82 -555 -308 -961 -1345 -1488 -2308 -1174 -128 42 -373 167 -484 246 -245 176 -448 416 -582 688 -245 500 -247 1086 -4 1590 272 565 821 954 1446 1024 112 13 371 5 489 -14z"/>
 <path d="M2225 4036 c-126 -46 -222 -129 -285 -247 -53 -100 -58 -143 -69 -664 -6 -264 -14 -535 -17 -602 l-6 -123 72 0 71 0 -1 -262 c-2 -215 1 -274 15 -323 52 -195 178 -347 360 -436 189 -92 388 -90 585 7 127 63 229 164 290 286 64 131 71 165 80 438 5 135 9 246 9 248 1 1 36 2 79 2 l79 0 6 228 c17 587 20 957 8 1029 -35 203 -186 366 -386 418 -47 12 -144 16 -440 21 l-380 5 -70 -25z m672 -490 c1 -1 -32 -131 -74 -290 l-76 -287 22 -15 c133 -94 116 -277 -31 -339 -92 -38 -195 5 -239 100 -42 92 -15 174 83 247 16 12 12 34 -48 292 -35 154 -64 286 -64 294 0 13 30 14 213 7 116 -4 213 -8 214 -9z m67 -1173 l228 -6 -7 -231 c-5 -142 -13 -252 -22 -285 -63 -244 -309 -420 -553 -397 -192 19 -354 130 -435 300 -51 107 -58 167 -50 420 l8 219 301 -7 c165 -3 404 -9 530 -13z"/>
 <path d="M4103 4519 c-58 -61 -67 -82 -53 -125 14 -42 131 -158 187 -185 57 -27 83 -18 143 51 75 86 67 127 -42 222 -89 77 -108 88 -150 88 -31 0 -44 -8 -85 -51z m177 -63 c35 -30 69 -66 77 -80 13 -24 11 -28 -28 -71 -23 -25 -49 -45 -59 -45 -22 0 -160 127 -160 147 0 24 69 103 89 103 9 0 46 -24 81 -54z"/>
 <path d="M603 3821 c-49 -23 -73 -62 -73 -121 0 -112 125 -174 214 -107 87 67 62 208 -42 237 -48 13 -50 13 -99 -9z"/>
 <path d="M4612 3833 c-33 -6 -88 -65 -95 -102 -15 -73 26 -139 100 -161 38 -12 46 -11 90 11 40 20 51 32 67 72 19 47 19 47 0 95 -15 38 -28 51 -64 70 -44 22 -54 23 -98 15z"/>
 <path d="M237 3002 c-9 -10 -17 -30 -17 -45 0 -48 52 -75 80 -42 10 13 15 13 21 3 10 -15 352 -48 374 -35 9 5 15 22 15 42 0 42 9 39 -210 60 -145 14 -166 14 -174 1 -8 -12 -12 -11 -21 7 -14 29 -47 33 -68 9z"/>
 <path d="M4667 2974 c-21 -21 -3 -83 63 -214 39 -77 70 -142 70 -145 0 -3 -26 -5 -59 -5 -66 0 -84 -13 -79 -57 l3 -28 245 0 245 0 0 40 0 40 -122 3 -123 3 71 140 c55 111 69 149 67 177 -3 32 -6 37 -28 37 -22 0 -33 -16 -94 -134 l-69 -135 -71 140 c-53 103 -76 140 -91 142 -12 2 -24 0 -28 -4z"/>
 <path d="M515 2491 c-142 -32 -159 -40 -174 -82 -17 -48 -13 -102 13 -230 28 -134 45 -179 80 -214 32 -32 56 -32 221 3 116 24 130 29 133 49 5 32 -15 63 -41 63 -12 0 -73 -11 -136 -24 -62 -14 -120 -22 -127 -19 -23 9 -78 242 -72 305 l3 32 127 26 c69 15 133 30 142 33 34 13 11 88 -27 86 -12 0 -76 -13 -142 -28z"/>
 <path d="M4595 2154 c-8 -9 -15 -28 -15 -44 0 -28 2 -29 158 -78 86 -28 167 -53 179 -56 13 -4 24 -2 29 6 6 9 10 5 14 -12 5 -21 12 -25 40 -25 28 0 37 5 47 27 26 53 -25 106 -65 66 -9 -9 -13 -7 -18 5 -4 11 -57 33 -152 63 -213 67 -200 65 -217 48z"/>
 <path d="M780 1579 c-80 -54 -155 -111 -167 -125 -31 -35 -29 -79 7 -151 38 -75 57 -94 88 -82 28 10 29 42 2 79 -26 37 -41 78 -31 85 5 3 23 -17 41 -44 43 -68 52 -74 78 -55 30 21 28 36 -15 99 -42 64 -55 46 104 152 106 70 118 87 89 126 -7 9 -22 17 -32 16 -10 0 -84 -45 -164 -100z"/>
 <path d="M4347 1612 c-37 -40 -24 -56 108 -137 113 -70 124 -79 114 -97 -13 -24 -6 -43 20 -57 16 -9 24 -7 40 10 l20 22 36 -22 c49 -28 62 -27 81 11 16 31 16 32 -8 52 -14 12 -33 26 -43 31 -16 10 -14 15 19 70 41 68 44 90 17 105 -32 17 -37 13 -80 -56 -27 -43 -45 -63 -54 -58 -6 4 -62 38 -123 76 -61 37 -115 68 -121 68 -5 0 -17 -8 -26 -18z"/>
 <path d="M4011 1189 c-31 -12 -213 -142 -264 -188 -43 -38 -77 -98 -77 -133 0 -25 19 -57 58 -100 21 -22 35 -28 69 -28 63 0 93 16 238 124 76 56 131 92 134 85 4 -13 -54 -71 -98 -100 -19 -12 -23 -21 -18 -41 14 -53 48 -44 134 35 94 87 97 133 14 245 -33 44 -70 87 -82 96 -26 18 -71 20 -108 5z m84 -114 c15 -19 25 -39 23 -44 -6 -16 -246 -188 -279 -200 -27 -9 -35 -8 -50 5 -26 23 -32 49 -19 74 17 32 249 200 276 200 14 0 33 -13 49 -35z"/>
 <path d="M1242 1183 c-25 -10 -133 -164 -139 -197 -11 -68 59 -153 214 -256 138 -93 186 -88 270 26 79 108 88 137 59 192 -27 52 -203 195 -279 227 -35 14 -98 19 -125 8z m98 -83 c18 0 206 -148 219 -173 13 -25 12 -30 -24 -81 -48 -70 -72 -96 -90 -96 -20 0 -162 97 -212 145 -24 23 -43 49 -43 59 0 18 71 122 99 144 8 7 22 10 29 7 8 -3 17 -5 22 -5z"/>
 <path d="M2011 783 c-18 -35 -81 -247 -81 -274 0 -45 51 -94 132 -125 69 -28 71 -28 85 -9 24 34 12 56 -43 76 -91 34 -92 36 -43 189 40 127 41 134 24 147 -26 18 -63 16 -74 -4z"/>
 <path d="M3231 751 c-13 -8 -12 -28 3 -145 21 -153 19 -159 -43 -176 -51 -14 -146 -13 -159 3 -5 6 -17 68 -26 136 -9 69 -19 128 -22 133 -10 15 -74 9 -81 -8 -3 -9 1 -75 11 -146 12 -96 14 -134 6 -143 -25 -30 -188 -47 -209 -22 -6 8 -18 65 -27 128 -8 63 -19 124 -24 137 -11 25 -46 30 -73 9 -17 -11 -16 -20 3 -152 11 -76 27 -150 36 -163 40 -61 197 -69 321 -16 27 11 73 16 153 18 94 1 124 5 162 23 71 33 82 57 74 161 -4 48 -12 119 -19 157 -12 67 -13 70 -42 73 -16 1 -36 -2 -44 -7z"/>
 </g>
<g id="layer102" fill="#b6b6b7" stroke="none">
 <path d="M2458 5353 c12 -2 32 -2 45 0 12 2 2 4 -23 4 -25 0 -35 -2 -22 -4z"/>
 <path d="M2858 5353 c12 -2 30 -2 40 0 9 3 -1 5 -23 4 -22 0 -30 -2 -17 -4z"/>
 <path d="M2638 5273 c23 -2 59 -2 80 0 20 2 1 4 -43 4 -44 0 -61 -2 -37 -4z"/>
 <path d="M2458 5263 c12 -2 30 -2 40 0 9 3 -1 5 -23 4 -22 0 -30 -2 -17 -4z"/>
 <path d="M2868 5263 c12 -2 30 -2 40 0 9 3 -1 5 -23 4 -22 0 -30 -2 -17 -4z"/>
 <path d="M2503 5123 c9 -2 25 -2 35 0 9 3 1 5 -18 5 -19 0 -27 -2 -17 -5z"/>
 <path d="M2403 5113 c9 -2 25 -2 35 0 9 3 1 5 -18 5 -19 0 -27 -2 -17 -5z"/>
 <path d="M1468 5079 c-32 -16 -58 -32 -58 -34 0 -5 119 52 129 61 13 12 -22 -1 -71 -27z"/>
 <path d="M2863 5070 c0 -25 2 -35 4 -22 2 12 2 32 0 45 -2 12 -4 2 -4 -23z"/>
 <path d="M3153 5073 c9 -2 25 -2 35 0 9 3 1 5 -18 5 -19 0 -27 -2 -17 -5z"/>
 <path d="M2433 5063 c9 -2 25 -2 35 0 9 3 1 5 -18 5 -19 0 -27 -2 -17 -5z"/>
 <path d="M1478 4984 c-38 -20 -36 -28 2 -9 17 9 30 18 30 20 0 7 -1 6 -32 -11z"/>
 <path d="M2793 4940 c0 -36 2 -50 4 -32 2 17 2 47 0 65 -2 17 -4 3 -4 -33z"/>
 <path d="M3462 4940 c0 -19 2 -27 5 -17 2 9 2 25 0 35 -3 9 -5 1 -5 -18z"/>
 <path d="M2853 4880 c0 -36 2 -50 4 -32 2 17 2 47 0 65 -2 17 -4 3 -4 -33z"/>
 <path d="M2538 4903 c12 -2 32 -2 45 0 12 2 2 4 -23 4 -25 0 -35 -2 -22 -4z"/>
 <path d="M2433 4893 c9 -2 25 -2 35 0 9 3 1 5 -18 5 -19 0 -27 -2 -17 -5z"/>
 <path d="M2313 4883 c15 -2 37 -2 50 0 12 2 0 4 -28 4 -27 0 -38 -2 -22 -4z"/>
 <path d="M2473 4843 c9 -2 25 -2 35 0 9 3 1 5 -18 5 -19 0 -27 -2 -17 -5z"/>
 <path d="M2363 4833 c9 -2 25 -2 35 0 9 3 1 5 -18 5 -19 0 -27 -2 -17 -5z"/>
 <path d="M860 4655 c-24 -25 -42 -45 -39 -45 3 0 25 20 49 45 24 25 42 45 39 45 -3 0 -25 -20 -49 -45z"/>
 <path d="M964 4628 l-29 -33 33 29 c30 28 37 36 29 36 -2 0 -16 -15 -33 -32z"/>
 <path d="M4565 4580 c44 -44 82 -80 85 -80 2 0 -31 36 -75 80 -44 44 -82 80 -85 80 -2 0 31 -36 75 -80z"/>
 <path d="M4505 4510 c60 -60 112 -110 115 -110 2 0 -45 50 -105 110 -60 61 -112 110 -115 110 -2 0 45 -49 105 -110z"/>
 <path d="M1109 4563 l-34 -38 38 34 c34 33 42 41 34 41 -2 0 -19 -17 -38 -37z"/>
 <path d="M2623 4573 c32 -2 81 -2 110 0 29 2 3 3 -58 3 -60 0 -84 -1 -52 -3z"/>
 <path d="M840 4513 l-55 -58 58 55 c53 50 62 60 54 60 -1 0 -27 -26 -57 -57z"/>
 <path d="M2853 4563 c9 -2 25 -2 35 0 9 3 1 5 -18 5 -19 0 -27 -2 -17 -5z"/>
 <path d="M700 4495 c-24 -25 -42 -45 -39 -45 3 0 25 20 49 45 24 25 42 45 39 45 -3 0 -25 -20 -49 -45z"/>
 <path d="M1099 4483 l-34 -38 38 34 c34 33 42 41 34 41 -2 0 -19 -17 -38 -37z"/>
 <path d="M1009 4473 l-34 -38 38 34 c34 33 42 41 34 41 -2 0 -19 -17 -38 -37z"/>
 <path d="M2508 4503 c12 -2 30 -2 40 0 9 3 -1 5 -23 4 -22 0 -30 -2 -17 -4z"/>
 <path d="M2808 4503 c12 -2 30 -2 40 0 9 3 -1 5 -23 4 -22 0 -30 -2 -17 -4z"/>
 <path d="M4070 4485 c-13 -14 -22 -27 -19 -29 2 -2 14 10 27 25 29 36 24 38 -8 4z"/>
 <path d="M4250 4487 c0 -2 15 -16 33 -33 l32 -29 -29 33 c-28 30 -36 37 -36 29z"/>
 <path d="M4365 4450 c21 -22 41 -40 44 -40 3 0 -13 18 -34 40 -21 22 -41 40 -44 40 -3 0 13 -18 34 -40z"/>
 <path d="M4116 4441 c-10 -11 -16 -26 -13 -33 4 -10 6 -10 6 1 1 8 8 23 18 33 9 10 14 18 11 18 -3 0 -13 -9 -22 -19z"/>
 <path d="M1336 4425 c5 -11 -7 -31 -32 -58 l-39 -42 43 40 c42 39 51 58 32 70 -6 3 -7 -1 -4 -10z"/>
 <path d="M1219 4363 l-34 -38 38 34 c34 33 42 41 34 41 -2 0 -19 -17 -38 -37z"/>
 <path d="M1818 4374 c-39 -21 -35 -28 5 -8 37 19 44 24 31 24 -5 -1 -21 -8 -36 -16z"/>
 <path d="M4145 4350 c21 -22 41 -40 44 -40 3 0 -13 18 -34 40 -21 22 -41 40 -44 40 -3 0 13 -18 34 -40z"/>
 <path d="M920 4313 c0 -5 12 -20 28 -34 l27 -24 -25 30 c-14 17 -26 32 -27 34 -2 2 -3 0 -3 -6z"/>
 <path d="M1204 4278 l-29 -33 33 29 c30 28 37 36 29 36 -2 0 -16 -15 -33 -32z"/>
 <path d="M4314 4289 c-10 -12 -28 -25 -39 -30 -14 -5 -15 -8 -4 -8 8 -1 28 13 44 29 16 17 26 30 23 30 -3 0 -13 -10 -24 -21z"/>
 <path d="M4140 4287 c0 -2 15 -16 33 -33 l32 -29 -29 33 c-28 30 -36 37 -36 29z"/>
 <path d="M4344 4228 l-29 -33 33 29 c17 17 32 31 32 33 0 8 -8 1 -36 -29z"/>
 <path d="M1335 4018 l-80 -83 83 80 c76 74 87 85 79 85 -1 0 -38 -37 -82 -82z"/>
 <path d="M3860 4077 c0 -2 15 -16 33 -33 l32 -29 -29 33 c-28 30 -36 37 -36 29z"/>
 <path d="M2638 4053 c34 -2 88 -2 120 0 31 2 3 3 -63 3 -66 0 -92 -1 -57 -3z"/>
 <path d="M1385 3978 l-70 -73 73 70 c67 64 77 75 69 75 -1 0 -34 -33 -72 -72z"/>
 <path d="M3008 4043 c12 -2 32 -2 45 0 12 2 2 4 -23 4 -25 0 -35 -2 -22 -4z"/>
 <path d="M3191 4006 c10 -9 69 -36 69 -32 0 6 -55 36 -66 36 -4 0 -5 -2 -3 -4z"/>
 <path d="M2029 3913 l-34 -38 38 34 c34 33 42 41 34 41 -2 0 -19 -17 -38 -37z"/>
 <path d="M3345 3900 c27 -27 51 -50 54 -50 3 0 -17 23 -44 50 -27 28 -51 50 -54 50 -3 0 17 -22 44 -50z"/>
 <path d="M4020 3917 c0 -2 15 -16 33 -33 l32 -29 -29 33 c-28 30 -36 37 -36 29z"/>
 <path d="M5067 3885 c9 -19 18 -33 21 -31 4 5 -26 66 -33 66 -3 0 3 -16 12 -35z"/>
 <path d="M4992 3835 c12 -24 23 -43 26 -41 4 5 -36 86 -43 86 -3 0 5 -20 17 -45z"/>
 <path d="M355 3839 c-9 -17 -15 -33 -13 -35 3 -2 12 12 21 31 21 43 13 47 -8 4z"/>
 <path d="M792 3700 c0 -19 2 -27 5 -17 2 9 2 25 0 35 -3 9 -5 1 -5 -18z"/>
 <path d="M1883 3565 c0 -33 2 -45 4 -27 2 18 2 45 0 60 -2 15 -4 0 -4 -33z"/>
 <path d="M3504 3345 c0 -137 2 -195 3 -128 2 67 2 179 0 250 -1 70 -3 16 -3 -122z"/>
 <path d="M2461 3548 c1 -16 3 -18 6 -6 2 9 16 19 31 21 24 4 24 4 -5 6 -28 1 -33 -2 -32 -21z"/>
 <path d="M2730 3554 c84 -8 178 -8 173 -1 -2 4 -50 6 -106 5 -56 -1 -86 -3 -67 -4z"/>
 <path d="M1874 3215 c0 -66 1 -92 3 -57 2 34 2 88 0 120 -2 31 -3 3 -3 -63z"/>
 <path d="M265 3013 c11 -3 27 -10 35 -17 13 -10 13 -9 1 7 -7 9 -23 16 -35 16 -20 -1 -20 -2 -1 -6z"/>
 <path d="M326 2992 c-2 -4 11 -6 30 -4 19 2 34 6 34 8 0 8 -59 4 -64 -4z"/>
 <path d="M443 2983 c9 -2 25 -2 35 0 9 3 1 5 -18 5 -19 0 -27 -2 -17 -5z"/>
 <path d="M553 2973 c9 -2 25 -2 35 0 9 3 1 5 -18 5 -19 0 -27 -2 -17 -5z"/>
 <path d="M4665 2969 c-4 -6 -4 -13 -1 -16 3 -4 6 -1 6 5 0 16 32 15 50 0 12 -11 12 -10 1 5 -15 19 -46 23 -56 6z"/>
 <path d="M304 2942 c-7 -19 -20 -32 -35 -35 -21 -4 -21 -4 -3 -6 25 -1 57 31 52 54 -2 12 -6 8 -14 -13z"/>
 <path d="M5252 2930 c0 -19 2 -27 5 -17 2 9 2 25 0 35 -3 9 -5 1 -5 -18z"/>
 <path d="M5342 2930 c0 -19 2 -27 5 -17 2 9 2 25 0 35 -3 9 -5 1 -5 -18z"/>
 <path d="M1864 2805 c0 -66 1 -92 3 -57 2 34 2 88 0 120 -2 31 -3 3 -3 -63z"/>
 <path d="M353 2903 c9 -2 25 -2 35 0 9 3 1 5 -18 5 -19 0 -27 -2 -17 -5z"/>
 <path d="M3 2855 c0 -27 2 -38 4 -22 2 15 2 37 0 50 -2 12 -4 0 -4 -28z"/>
 <path d="M93 2860 c0 -25 2 -35 4 -22 2 12 2 32 0 45 -2 12 -4 2 -4 -23z"/>
 <path d="M463 2893 c9 -2 25 -2 35 0 9 3 1 5 -18 5 -19 0 -27 -2 -17 -5z"/>
 <path d="M4972 2754 c-40 -79 -72 -146 -72 -149 0 -3 56 -5 124 -5 75 0 126 -4 129 -10 3 -6 4 -5 3 2 -2 10 -35 14 -124 16 l-122 3 71 140 c38 78 69 143 67 145 -2 2 -36 -62 -76 -142z"/>
 <path d="M573 2883 c9 -2 25 -2 35 0 9 3 1 5 -18 5 -19 0 -27 -2 -17 -5z"/>
 <path d="M792 2860 c0 -19 2 -27 5 -17 2 9 2 25 0 35 -3 9 -5 1 -5 -18z"/>
 <path d="M3494 2765 c0 -71 1 -99 3 -62 2 37 2 96 0 130 -2 34 -3 4 -3 -68z"/>
 <path d="M853 2805 c0 -27 2 -38 4 -22 2 15 2 37 0 50 -2 12 -4 0 -4 -28z"/>
 <path d="M4563 2790 c0 -30 2 -43 4 -27 2 15 2 39 0 55 -2 15 -4 2 -4 -28z"/>
 <path d="M5264 2685 c0 -88 2 -123 3 -77 2 46 2 118 0 160 -1 42 -3 5 -3 -83z"/>
 <path d="M5354 2685 c0 -82 2 -115 3 -72 2 43 2 110 0 150 -1 40 -3 5 -3 -78z"/>
 <path d="M4504 2685 c0 -55 1 -76 3 -47 2 29 2 74 0 100 -2 26 -3 2 -3 -53z"/>
 <path d="M783 2680 c0 -36 2 -50 4 -32 2 17 2 47 0 65 -2 17 -4 3 -4 -33z"/>
 <path d="M4563 2580 c0 -30 2 -43 4 -27 2 15 2 39 0 55 -2 15 -4 2 -4 -28z"/>
 <path d="M4740 2610 l-65 -7 68 -1 c39 -1 67 2 67 8 0 6 -1 9 -2 8 -2 -1 -32 -4 -68 -8z"/>
 <path d="M853 2560 c0 -25 2 -35 4 -22 2 12 2 32 0 45 -2 12 -4 2 -4 -23z"/>
 <path d="M3 2515 c0 -27 2 -38 4 -22 2 15 2 37 0 50 -2 12 -4 0 -4 -28z"/>
 <path d="M93 2500 c0 -25 2 -35 4 -22 2 12 2 32 0 45 -2 12 -4 2 -4 -23z"/>
 <path d="M792 2510 c0 -19 2 -27 5 -17 2 9 2 25 0 35 -3 9 -5 1 -5 -18z"/>
 <path d="M630 2516 c0 -2 13 -6 29 -8 17 -2 28 -1 25 4 -5 8 -54 12 -54 4z"/>
 <path d="M1852 2458 l-2 -58 33 1 c29 2 30 2 5 6 -25 4 -27 9 -31 56 l-3 52 -2 -57z"/>
 <path d="M5252 2440 c0 -19 2 -27 5 -17 2 9 2 25 0 35 -3 9 -5 1 -5 -18z"/>
 <path d="M5342 2440 c0 -19 2 -27 5 -17 2 9 2 25 0 35 -3 9 -5 1 -5 -18z"/>
 <path d="M3480 2415 l0 -45 -80 0 -80 0 2 -42 1 -43 4 38 4 37 80 0 79 0 0 50 c0 28 -2 50 -5 50 -3 0 -5 -20 -5 -45z"/>
 <path d="M1994 2295 c0 -60 1 -84 3 -52 2 32 2 81 0 110 -2 29 -3 3 -3 -58z"/>
 <path d="M2124 2387 c-2 -7 -3 -62 -1 -123 l3 -109 2 117 2 117 98 4 97 3 -98 2 c-73 1 -99 -1 -103 -11z"/>
 <path d="M2558 2383 c34 -2 88 -2 120 0 31 2 3 3 -63 3 -66 0 -92 -1 -57 -3z"/>
 <path d="M2968 2373 c34 -2 88 -2 120 0 31 2 3 3 -63 3 -66 0 -92 -1 -57 -3z"/>
 <path d="M3184 2040 c0 -58 1 -81 3 -52 2 28 2 76 0 105 -2 28 -3 5 -3 -53z"/>
 <path d="M3314 2015 c0 -55 1 -76 3 -47 2 29 2 74 0 100 -2 26 -3 2 -3 -53z"/>
 <path d="M781 2028 c0 -14 -7 -29 -13 -31 -10 -4 -10 -6 0 -6 16 -1 25 22 19 46 -3 12 -5 9 -6 -9z"/>
 <path d="M4961 2028 c0 -10 -10 -27 -21 -38 -11 -11 -16 -20 -12 -20 17 0 44 39 39 57 -4 16 -5 16 -6 1z"/>
 <path d="M1982 1980 c0 -19 2 -27 5 -17 2 9 2 25 0 35 -3 9 -5 1 -5 -18z"/>
 <path d="M4362 1835 c-12 -25 -20 -45 -17 -45 7 0 47 81 43 86 -3 2 -14 -17 -26 -41z"/>
 <path d="M3020 1605 c-24 -25 -42 -45 -39 -45 3 0 25 20 49 45 24 25 42 45 39 45 -3 0 -25 -20 -49 -45z"/>
 <path d="M2270 1605 c19 -19 36 -35 39 -35 3 0 -10 16 -29 35 -19 19 -36 35 -39 35 -3 0 10 -16 29 -35z"/>
 <path d="M330 1586 c0 -10 60 -126 65 -126 3 0 -9 28 -26 63 -33 65 -39 75 -39 63z"/>
 <path d="M250 1546 c0 -11 50 -106 55 -106 3 0 -7 24 -21 53 -28 55 -34 65 -34 53z"/>
 <path d="M3110 1505 c-24 -25 -42 -45 -39 -45 3 0 25 20 49 45 24 25 42 45 39 45 -3 0 -25 -20 -49 -45z"/>
 <path d="M2180 1505 c19 -19 36 -35 39 -35 3 0 -10 16 -29 35 -19 19 -36 35 -39 35 -3 0 10 -16 29 -35z"/>
 <path d="M1380 1395 c47 -47 87 -85 90 -85 2 0 -33 38 -80 85 -47 47 -87 85 -90 85 -2 0 33 -38 80 -85z"/>
 <path d="M5045 1440 c-9 -16 -13 -30 -11 -30 3 0 12 14 21 30 9 17 13 30 11 30 -3 0 -12 -13 -21 -30z"/>
 <path d="M1335 1350 c49 -49 92 -90 95 -90 2 0 -36 41 -85 90 -49 50 -92 90 -95 90 -2 0 36 -40 85 -90z"/>
 <path d="M593 1395 c0 -22 2 -30 4 -17 2 12 2 30 0 40 -3 9 -5 -1 -4 -23z"/>
 <path d="M3964 1388 l-29 -33 33 29 c17 17 32 31 32 33 0 8 -8 1 -36 -29z"/>
 <path d="M4015 1348 l-40 -43 43 40 c39 36 47 45 39 45 -2 0 -21 -19 -42 -42z"/>
 <path d="M4707 1318 c2 -5 13 -8 23 -8 10 0 21 3 23 8 3 4 -8 7 -23 7 -15 0 -26 -3 -23 -7z"/>
 <path d="M2613 1313 c20 -2 54 -2 75 0 20 2 3 4 -38 4 -41 0 -58 -2 -37 -4z"/>
 <path d="M1810 1075 c0 -7 81 -47 86 -43 2 3 -17 14 -41 26 -25 12 -45 20 -45 17z"/>
 <path d="M1102 970 c0 -19 2 -27 5 -17 2 9 2 25 0 35 -3 9 -5 1 -5 -18z"/>
 <path d="M4585 938 l-40 -43 43 40 c23 21 42 40 42 42 0 8 -9 0 -45 -39z"/>
 <path d="M680 895 c19 -19 36 -35 39 -35 3 0 -10 16 -29 35 -19 19 -36 35 -39 35 -3 0 10 -16 29 -35z"/>
 <path d="M770 927 c0 -1 35 -36 78 -77 l77 -75 -75 78 c-69 71 -80 82 -80 74z"/>
 <path d="M3672 870 c0 -19 2 -27 5 -17 2 9 2 25 0 35 -3 9 -5 1 -5 -18z"/>
 <path d="M4190 855 c-24 -25 -42 -45 -39 -45 3 0 25 20 49 45 24 25 42 45 39 45 -3 0 -25 -20 -49 -45z"/>
 <path d="M4565 788 l-100 -103 103 100 c56 55 102 101 102 102 0 8 -12 -4 -105 -99z"/>
 <path d="M2493 863 c9 -2 25 -2 35 0 9 3 1 5 -18 5 -19 0 -27 -2 -17 -5z"/>
 <path d="M2833 863 c9 -2 25 -2 35 0 9 3 1 5 -18 5 -19 0 -27 -2 -17 -5z"/>
 <path d="M2648 853 c18 -2 45 -2 60 0 15 2 0 4 -33 4 -33 0 -45 -2 -27 -4z"/>
 <path d="M4415 768 l-40 -43 43 40 c23 21 42 40 42 42 0 8 -9 0 -45 -39z"/>
 <path d="M2613 793 c37 -2 97 -2 135 0 37 2 6 3 -68 3 -74 0 -105 -1 -67 -3z"/>
 <path d="M950 757 c0 -2 15 -16 33 -33 l32 -29 -29 33 c-28 30 -36 37 -36 29z"/>
 <path d="M880 695 c19 -19 36 -35 39 -35 3 0 -10 16 -29 35 -19 19 -36 35 -39 35 -3 0 10 -16 29 -35z"/>
 <path d="M2600 666 c0 -2 13 -6 29 -8 17 -2 28 -1 25 4 -5 8 -54 12 -54 4z"/>
 <path d="M3251 478 c-1 -9 -11 -24 -23 -32 -12 -9 -18 -16 -12 -16 17 0 47 38 41 52 -4 9 -6 7 -6 -4z"/>
 <path d="M3073 413 c15 -2 39 -2 55 0 15 2 2 4 -28 4 -30 0 -43 -2 -27 -4z"/>
 <path d="M3830 370 c-19 -11 -31 -19 -27 -20 11 0 67 29 67 35 0 7 -1 7 -40 -15z"/>
 <path d="M2433 103 c9 -2 25 -2 35 0 9 3 1 5 -18 5 -19 0 -27 -2 -17 -5z"/>
 <path d="M2888 103 c12 -2 30 -2 40 0 9 3 -1 5 -23 4 -22 0 -30 -2 -17 -4z"/>
 <path d="M2618 93 c34 -2 90 -2 125 0 34 2 6 3 -63 3 -69 0 -97 -1 -62 -3z"/>
 <path d="M2438 13 c12 -2 30 -2 40 0 9 3 -1 5 -23 4 -22 0 -30 -2 -17 -4z"/>
 <path d="M2878 13 c12 -2 30 -2 40 0 9 3 -1 5 -23 4 -22 0 -30 -2 -17 -4z"/>
 <path d="M2628 3 c28 -2 76 -2 105 0 28 2 5 3 -53 3 -58 0 -81 -1 -52 -3z"/>
 </g>

</svg>